<?xml version="1.0" encoding="utf-8"?>
<!-- Generator: Adobe Illustrator 21.0.0, SVG Export Plug-In . SVG Version: 6.00 Build 0)  -->
<svg version="1.1" id="Camada_1" xmlns="http://www.w3.org/2000/svg" xmlns:xlink="http://www.w3.org/1999/xlink" x="0px" y="0px"
	 viewBox="0 0 60 81.4" style="enable-background:new 0 0 60 81.4;" xml:space="preserve">
<style type="text/css">
	.st0{fill:#1DB9DD;}
	.st1{fill:#FF0000;}
	.st2{fill:#FFFFFF;}
	.st3{font-family:'Roboto-Bold';}
	.st4{font-size:10.09px;}
</style>
<g>
	<title>Ativo 1</title>
	<circle id="Oval" class="st0" cx="30.2" cy="30" r="30"/>
	<path id="Combined-Shape" class="st1" d="M19.3,29.3C22.2,36,30.2,48,30.2,48s9.3-14.6,11.2-19.7l0,0c0.5-1.3,0.8-2.8,0.8-4.2
		c0-6.6-5.4-12-12.1-11.9s-12,5.4-11.9,12.1C18.2,26,18.6,27.7,19.3,29.3z M30.2,31c3.9,0,7-3.1,7-7s-3.1-7-7-7s-7,3.1-7,7
		S26.3,31,30.2,31z"/>
	<circle class="st0" cx="30.2" cy="24" r="7"/>
	<text transform="matrix(1 0 0 1 3.0161 72.1709)" class="st2 st3 st4">Check </text>
	<text transform="matrix(1 0 0 1 34.1061 72.1709)" class="st2 st3 st4">P</text>
	<text transform="matrix(1 0 0 1 39.9961 72.1709)" class="st2 st3 st4">oint</text>
</g>
</svg>
